<mxfile host="app.diagrams.net" modified="2023-11-18T07:30:24.056Z" agent="Mozilla/5.0 (Windows NT 10.0; Win64; x64) AppleWebKit/537.36 (KHTML, like Gecko) Chrome/119.0.0.0 Safari/537.36" etag="y9YA1AdKB8hBtvInUlmO" version="22.1.3" type="device">
  <diagram name="Page-1" id="sdsImHb5m99pFpQp51NG">
    <mxGraphModel dx="1430" dy="773" grid="1" gridSize="10" guides="1" tooltips="1" connect="1" arrows="1" fold="1" page="1" pageScale="1" pageWidth="850" pageHeight="1100" math="0" shadow="0">
      <root>
        <mxCell id="0" />
        <mxCell id="1" parent="0" />
        <mxCell id="g-WX4Wpb5zQsW-eBF2fh-1" value="" style="rounded=0;whiteSpace=wrap;html=1;fillStyle=hatch;fillColor=#dae8fc;strokeColor=#6c8ebf;" vertex="1" parent="1">
          <mxGeometry x="650" y="200" width="430" height="430" as="geometry" />
        </mxCell>
        <mxCell id="g-WX4Wpb5zQsW-eBF2fh-3" value="" style="rounded=0;whiteSpace=wrap;html=1;fillStyle=hatch;fillColor=#d5e8d4;strokeColor=#82b366;" vertex="1" parent="1">
          <mxGeometry x="130" y="370" width="220" height="230" as="geometry" />
        </mxCell>
        <mxCell id="g-WX4Wpb5zQsW-eBF2fh-5" value="" style="rounded=0;whiteSpace=wrap;html=1;fillStyle=hatch;fillColor=#f8cecc;strokeColor=#b85450;" vertex="1" parent="1">
          <mxGeometry x="400" y="380" width="240" height="370" as="geometry" />
        </mxCell>
        <mxCell id="0tLEOixdC0dCrLUX963W-3" style="edgeStyle=orthogonalEdgeStyle;rounded=0;orthogonalLoop=1;jettySize=auto;html=1;" parent="1" source="0tLEOixdC0dCrLUX963W-1" target="0tLEOixdC0dCrLUX963W-2" edge="1">
          <mxGeometry relative="1" as="geometry" />
        </mxCell>
        <mxCell id="0tLEOixdC0dCrLUX963W-1" value="Actor" style="shape=umlActor;verticalLabelPosition=bottom;verticalAlign=top;html=1;outlineConnect=0;" parent="1" vertex="1">
          <mxGeometry x="160" y="440" width="30" height="60" as="geometry" />
        </mxCell>
        <mxCell id="0tLEOixdC0dCrLUX963W-2" value="frontend" style="ellipse;whiteSpace=wrap;html=1;aspect=fixed;" parent="1" vertex="1">
          <mxGeometry x="240" y="400" width="80" height="80" as="geometry" />
        </mxCell>
        <mxCell id="0tLEOixdC0dCrLUX963W-18" style="edgeStyle=orthogonalEdgeStyle;rounded=0;orthogonalLoop=1;jettySize=auto;html=1;" parent="1" source="0tLEOixdC0dCrLUX963W-4" target="0tLEOixdC0dCrLUX963W-17" edge="1">
          <mxGeometry relative="1" as="geometry" />
        </mxCell>
        <mxCell id="0tLEOixdC0dCrLUX963W-4" value="fastapi" style="shape=cube;whiteSpace=wrap;html=1;boundedLbl=1;backgroundOutline=1;darkOpacity=0.05;darkOpacity2=0.1;" parent="1" vertex="1">
          <mxGeometry x="480" y="410" width="120" height="80" as="geometry" />
        </mxCell>
        <mxCell id="0tLEOixdC0dCrLUX963W-5" value="" style="shape=flexArrow;endArrow=classic;startArrow=classic;html=1;rounded=0;" parent="1" edge="1">
          <mxGeometry width="100" height="100" relative="1" as="geometry">
            <mxPoint x="340" y="440" as="sourcePoint" />
            <mxPoint x="470" y="440" as="targetPoint" />
          </mxGeometry>
        </mxCell>
        <mxCell id="0tLEOixdC0dCrLUX963W-6" value="JSON" style="text;html=1;strokeColor=none;fillColor=none;align=center;verticalAlign=middle;whiteSpace=wrap;rounded=0;" parent="1" vertex="1">
          <mxGeometry x="370" y="380" width="60" height="30" as="geometry" />
        </mxCell>
        <mxCell id="0tLEOixdC0dCrLUX963W-14" style="edgeStyle=orthogonalEdgeStyle;rounded=0;orthogonalLoop=1;jettySize=auto;html=1;" parent="1" source="0tLEOixdC0dCrLUX963W-7" target="0tLEOixdC0dCrLUX963W-13" edge="1">
          <mxGeometry relative="1" as="geometry" />
        </mxCell>
        <mxCell id="0tLEOixdC0dCrLUX963W-7" value="умное зеркало" style="shape=parallelogram;perimeter=parallelogramPerimeter;whiteSpace=wrap;html=1;fixedSize=1;" parent="1" vertex="1">
          <mxGeometry x="890" y="270" width="120" height="60" as="geometry" />
        </mxCell>
        <mxCell id="0tLEOixdC0dCrLUX963W-11" style="edgeStyle=orthogonalEdgeStyle;rounded=0;orthogonalLoop=1;jettySize=auto;html=1;" parent="1" source="0tLEOixdC0dCrLUX963W-8" target="0tLEOixdC0dCrLUX963W-4" edge="1">
          <mxGeometry relative="1" as="geometry" />
        </mxCell>
        <mxCell id="0tLEOixdC0dCrLUX963W-8" value="водонагреватель" style="shape=parallelogram;perimeter=parallelogramPerimeter;whiteSpace=wrap;html=1;fixedSize=1;" parent="1" vertex="1">
          <mxGeometry x="850" y="370" width="120" height="60" as="geometry" />
        </mxCell>
        <mxCell id="0tLEOixdC0dCrLUX963W-9" value="..." style="shape=parallelogram;perimeter=parallelogramPerimeter;whiteSpace=wrap;html=1;fixedSize=1;" parent="1" vertex="1">
          <mxGeometry x="840" y="490" width="120" height="60" as="geometry" />
        </mxCell>
        <mxCell id="0tLEOixdC0dCrLUX963W-12" style="edgeStyle=orthogonalEdgeStyle;rounded=0;orthogonalLoop=1;jettySize=auto;html=1;entryX=0.583;entryY=0.875;entryDx=0;entryDy=0;entryPerimeter=0;" parent="1" source="0tLEOixdC0dCrLUX963W-9" target="0tLEOixdC0dCrLUX963W-4" edge="1">
          <mxGeometry relative="1" as="geometry" />
        </mxCell>
        <mxCell id="0tLEOixdC0dCrLUX963W-13" value="cache" style="shape=cylinder3;whiteSpace=wrap;html=1;boundedLbl=1;backgroundOutline=1;size=15;" parent="1" vertex="1">
          <mxGeometry x="730" y="240" width="60" height="80" as="geometry" />
        </mxCell>
        <mxCell id="0tLEOixdC0dCrLUX963W-15" style="edgeStyle=orthogonalEdgeStyle;rounded=0;orthogonalLoop=1;jettySize=auto;html=1;entryX=0.703;entryY=-0.014;entryDx=0;entryDy=0;entryPerimeter=0;" parent="1" source="0tLEOixdC0dCrLUX963W-13" target="0tLEOixdC0dCrLUX963W-4" edge="1">
          <mxGeometry relative="1" as="geometry" />
        </mxCell>
        <mxCell id="0tLEOixdC0dCrLUX963W-16" value="fresh" style="text;html=1;strokeColor=none;fillColor=none;align=center;verticalAlign=middle;whiteSpace=wrap;rounded=0;" parent="1" vertex="1">
          <mxGeometry x="650" y="230" width="60" height="30" as="geometry" />
        </mxCell>
        <mxCell id="0tLEOixdC0dCrLUX963W-17" value="db&lt;br&gt;Postgres" style="shape=cylinder3;whiteSpace=wrap;html=1;boundedLbl=1;backgroundOutline=1;size=15;" parent="1" vertex="1">
          <mxGeometry x="440" y="560" width="60" height="80" as="geometry" />
        </mxCell>
        <mxCell id="0tLEOixdC0dCrLUX963W-20" value="без GC (Rust/C/C++)" style="text;html=1;strokeColor=none;fillColor=none;align=center;verticalAlign=middle;whiteSpace=wrap;rounded=0;" parent="1" vertex="1">
          <mxGeometry x="960" y="230" width="60" height="30" as="geometry" />
        </mxCell>
        <mxCell id="0tLEOixdC0dCrLUX963W-21" value="" style="shape=image;verticalLabelPosition=bottom;labelBackgroundColor=default;verticalAlign=top;aspect=fixed;imageAspect=0;image=https://images.ctfassets.net/dfcvkz6j859j/3yyuVQqgzMOMr2AGytPI4u/91be75a9b2d8debb8750270d0b3d52d4/Web-Analytics-Dashboard.png;" parent="1" vertex="1">
          <mxGeometry x="10" y="10" width="530" height="336.11" as="geometry" />
        </mxCell>
        <mxCell id="v9862hDu5hUvn8m9qu2E-1" value="logs&lt;br&gt;ClickHouse" style="shape=cylinder3;whiteSpace=wrap;html=1;boundedLbl=1;backgroundOutline=1;size=15;" parent="1" vertex="1">
          <mxGeometry x="560" y="600" width="70" height="80" as="geometry" />
        </mxCell>
        <mxCell id="v9862hDu5hUvn8m9qu2E-2" style="edgeStyle=orthogonalEdgeStyle;rounded=0;orthogonalLoop=1;jettySize=auto;html=1;entryX=0.5;entryY=0;entryDx=0;entryDy=0;entryPerimeter=0;" parent="1" source="0tLEOixdC0dCrLUX963W-4" target="v9862hDu5hUvn8m9qu2E-1" edge="1">
          <mxGeometry relative="1" as="geometry" />
        </mxCell>
        <mxCell id="g-WX4Wpb5zQsW-eBF2fh-2" value="Backend / IOT" style="text;html=1;strokeColor=#6c8ebf;fillColor=#dae8fc;align=center;verticalAlign=middle;whiteSpace=wrap;rounded=0;" vertex="1" parent="1">
          <mxGeometry x="800" y="163.06" width="100" height="30" as="geometry" />
        </mxCell>
        <mxCell id="g-WX4Wpb5zQsW-eBF2fh-4" value="Fullstack / Frontend" style="text;html=1;strokeColor=#82b366;fillColor=#d5e8d4;align=center;verticalAlign=middle;whiteSpace=wrap;rounded=0;" vertex="1" parent="1">
          <mxGeometry x="180" y="610" width="120" height="30" as="geometry" />
        </mxCell>
        <mxCell id="g-WX4Wpb5zQsW-eBF2fh-6" value="Fullstack / Backend" style="text;html=1;strokeColor=#b85450;fillColor=#f8cecc;align=center;verticalAlign=middle;whiteSpace=wrap;rounded=0;" vertex="1" parent="1">
          <mxGeometry x="450" y="760" width="120" height="30" as="geometry" />
        </mxCell>
      </root>
    </mxGraphModel>
  </diagram>
</mxfile>
